# xmcd
#
# Track frame offsets:
#	150
#	17500
#	28472
#	45512
#	59245
#	73750
#	86385
#	97382
#	109882
#	122637
#	139317
#	148740
#
# Disc length: 2254 seconds
#
# Revision: 3
# Processed by: cddbd v1.5.2PL0 Copyright (c) Steve Scherf et al.
# Submitted via: audiograbber 1.83.01
#
DISCID=ba08cc0c
DTITLE=Charley Pride - PRIDE! My 6 Latest and 6 Greatest
DYEAR=1993
DGENRE=Country
TTITLE0=Just for the Love of it
TTITLE1=Walk on By
TTITLE2=I've Been There
TTITLE3=Burnin' Down the Town
TTITLE4=For Today
TTITLE5=I Came Straight to You
TTITLE6=Is Anybody Goin' to San Antone
TTITLE7=Crystal Chanderliers
TTITLE8=Hope You're Feelin' Me (Like I'm Feelin' You)
TTITLE9=Roll on Mississippi
TTITLE10=Kiss an Angel Good Morning
TTITLE11=You're so Good When You're Bad
EXTD=
EXTT0=
EXTT1=
EXTT2=
EXTT3=
EXTT4=
EXTT5=
EXTT6=
EXTT7=
EXTT8=
EXTT9=
EXTT10=
EXTT11=
PLAYORDER=
